<?xml version="1.0" encoding="UTF-8" standalone="no"?> <svg width="64" height="64" viewBox="0 0 64 64" fill="none" xmlns="http://www.w3.org/2000/svg">
<path d="M24.75 28.8101L40.68 29.4401V39.5001L38.38 44.3101H31.69L30.13 35.4501L26.64 31.5701L24.75 28.8101Z" fill="url(#paint0_linear)"/>
<path d="M58.7499 29.4099L54.2799 29.1899C54.2799 29.1899 53.9699 37.1299 54.2799 37.8099C55.3999 39.194 56.6127 40.5003 57.9099 41.7199H59.4699C59.4699 41.7199 60.3799 34.3499 60.3499 34.2199C60.3199 34.0899 58.7499 29.4099 58.7499 29.4099Z" fill="url(#paint1_linear)"/>
<path d="M49.72 29.1899C49.72 29.1899 49.72 34.3099 49.72 34.4399C50.0862 35.0409 50.4938 35.6157 50.94 36.1599L53.66 36.7499L53.5 29.1899H49.72Z" fill="url(#paint2_linear)"/>
<path d="M45.53 29.4701L45.28 34.1901L45.78 36.1901L49.19 35.8201L48.91 29.4801C48.91 29.4801 45.63 29.4101 45.53 29.4701Z" fill="url(#paint3_linear)"/>
<path d="M40.6799 29.4399C40.6799 29.4399 40.4399 35.7199 40.4699 36.1899C40.6387 37.1008 40.9 37.9921 41.2499 38.8499C41.3799 38.9799 41.9699 38.5099 42.1299 38.3199C43.0239 37.864 43.9419 37.4567 44.8799 37.0999L44.5999 29.4499L40.6799 29.4399Z" fill="url(#paint4_linear)"/>
<path d="M48.5499 54.1799C52.8964 54.1799 56.4199 50.6564 56.4199 46.3099C56.4199 41.9635 52.8964 38.4399 48.5499 38.4399C44.2034 38.4399 40.6799 41.9635 40.6799 46.3099C40.6799 50.6564 44.2034 54.1799 48.5499 54.1799Z" fill="url(#paint5_linear)"/>
<path d="M15.34 31.5701C13.1027 31.5681 10.915 32.2297 9.0538 33.4713C7.19257 34.7128 5.74138 36.4785 4.88382 38.545C4.02626 40.6114 3.80086 42.8858 4.23613 45.0804C4.67139 47.275 5.74778 49.2912 7.32911 50.8739C8.91044 52.4566 10.9257 53.5348 13.1199 53.972C15.3141 54.4092 17.5886 54.1858 19.6559 53.3301C21.7231 52.4744 23.49 51.0247 24.7332 49.1646C25.9765 47.3045 26.64 45.1174 26.64 42.8801C26.6374 39.883 25.4463 37.0093 23.328 34.8891C21.2097 32.769 18.3371 31.5754 15.34 31.5701V31.5701Z" fill="url(#paint6_linear)"/>
<path d="M56.3199 28.1401H50.6599C50.6637 28.0901 50.6637 28.04 50.6599 27.9901V23.6001C50.6626 22.601 51.0606 21.6436 51.7671 20.9372C52.4735 20.2307 53.4309 19.8327 54.4299 19.8301H55.4299C55.6952 19.8301 55.9495 19.7247 56.137 19.5372C56.3246 19.3496 56.4299 19.0953 56.4299 18.8301C56.4299 18.5648 56.3246 18.3105 56.137 18.123C55.9495 17.9354 55.6952 17.8301 55.4299 17.8301H54.4299C52.9004 17.8327 51.4344 18.4415 50.3528 19.523C49.2713 20.6045 48.6626 22.0706 48.6599 23.6001V28.0001C48.6562 28.05 48.6562 28.1001 48.6599 28.1501H38.3299L34.8899 11.8101H39.3799C39.6452 11.8101 39.8995 11.7047 40.087 11.5172C40.2746 11.3296 40.3799 11.0753 40.3799 10.8101C40.3799 10.5448 40.2746 10.2905 40.087 10.103C39.8995 9.91541 39.6452 9.81006 39.3799 9.81006H8.46993C8.20472 9.81006 7.95036 9.91541 7.76283 10.103C7.57529 10.2905 7.46993 10.5448 7.46993 10.8101C7.46993 11.0753 7.57529 11.3296 7.76283 11.5172C7.95036 11.7047 8.20472 11.8101 8.46993 11.8101H11.9999V26.1601C8.68205 26.8071 5.63426 28.4338 3.24993 30.8301C3.14525 30.9197 3.06023 31.03 3.00021 31.1541C2.94019 31.2782 2.90646 31.4133 2.90114 31.551C2.89582 31.6887 2.91902 31.8261 2.9693 31.9544C3.01957 32.0827 3.09583 32.1993 3.19328 32.2967C3.29074 32.3942 3.40729 32.4704 3.53561 32.5207C3.66394 32.571 3.80127 32.5942 3.93899 32.5889C4.07671 32.5835 4.21184 32.5498 4.3359 32.4898C4.45997 32.4298 4.57029 32.3447 4.65993 32.2401C7.48138 29.4249 11.3043 27.844 15.2899 27.844C19.2756 27.844 23.0985 29.4249 25.9199 32.2401C26.345 32.6613 26.7393 33.1125 27.0999 33.5901C29.4563 36.5257 30.6107 40.2462 30.3299 44.0001C30.3299 44.0001 30.3299 44.0001 30.3299 44.0001C30.3257 44.0533 30.3257 44.1068 30.3299 44.1601C30.3239 44.2232 30.3239 44.2869 30.3299 44.3501C30.3544 44.4095 30.3845 44.4664 30.4199 44.5201C30.4744 44.6388 30.5655 44.737 30.6799 44.8001C30.7296 44.8418 30.7832 44.8787 30.8399 44.9101C30.9015 44.9329 30.9651 44.9497 31.0299 44.9601C31.0799 44.9641 31.13 44.9641 31.1799 44.9601H38.4199C38.5432 44.9591 38.6653 44.9354 38.7799 44.8901L38.8899 44.8301C38.9581 44.7942 39.0218 44.7506 39.0799 44.7001L39.1699 44.6001C39.2504 44.5063 39.3116 44.3975 39.3499 44.2801C39.3514 44.2501 39.3514 44.22 39.3499 44.1901C39.7104 42.6608 40.4485 41.2463 41.4966 40.0759C42.5448 38.9055 43.8696 38.0164 45.3499 37.4901C46.6704 37.0103 48.0855 36.8493 49.4799 37.0201C51.2947 37.2211 53.0099 37.9525 54.4114 39.1227C55.8129 40.293 56.8384 41.8503 57.3599 43.6001C57.4141 43.6929 57.4609 43.7899 57.4999 43.8901C57.5871 44.01 57.6998 44.109 57.8299 44.1801H57.9099C58.0177 44.2265 58.1328 44.2535 58.2499 44.2601C58.3362 44.2714 58.4236 44.2714 58.5099 44.2601V44.2601C58.6135 44.2294 58.7115 44.1821 58.7999 44.1201H58.8499C59.4855 43.7113 60.0129 43.1551 60.3872 42.4987C60.7616 41.8423 60.9718 41.1052 60.9999 40.3501V32.8101C60.9973 31.5706 60.503 30.3828 59.6257 29.5073C58.7483 28.6318 57.5594 28.1401 56.3199 28.1401V28.1401ZM16.9999 25.9201C16.4499 25.8701 15.8999 25.8401 15.3399 25.8401C14.7799 25.8401 14.4799 25.8401 14.0499 25.9001V11.8101H17.0499L16.9999 25.9201ZM23.8499 28.1301C22.3407 27.2554 20.7044 26.6211 18.9999 26.2501V11.8101H32.8499L36.2899 28.1301H23.8499ZM39.5299 39.5301C38.7364 40.5741 38.1307 41.7483 37.7399 43.0001H32.3499C32.4029 39.1396 31.1245 35.3786 28.7299 32.3501C28.3172 31.8052 27.866 31.2906 27.3799 30.8101C27.1299 30.5601 26.8699 30.3401 26.6099 30.1101H39.5299V39.5301ZM44.1099 35.9401C43.1845 36.3349 42.3167 36.8529 41.5299 37.4801V30.1401H44.1099V35.9401ZM48.6899 35.0001C47.8227 34.9847 46.9567 35.072 46.1099 35.2601V30.1401H48.6899V35.0001ZM53.2699 36.0501C52.4465 35.6705 51.5802 35.3918 50.6899 35.2201V30.1201H53.2699V36.0501ZM58.9999 40.3501C58.9976 40.7338 58.9124 41.1124 58.7499 41.4601C57.9545 39.7944 56.7631 38.3489 55.2799 37.2501V30.1401H56.2799C56.6344 30.1348 56.9864 30.1998 57.3155 30.3315C57.6446 30.4632 57.9444 30.6589 58.1973 30.9072C58.4503 31.1555 58.6515 31.4516 58.7893 31.7782C58.9271 32.1049 58.9987 32.4556 58.9999 32.8101V40.3501Z" fill="url(#paint7_linear)"/>
<path d="M60 55H5C4.73478 55 4.48043 54.8946 4.29289 54.7071C4.10536 54.5196 4 54.2652 4 54C4 53.7348 4.10536 53.4804 4.29289 53.2929C4.48043 53.1054 4.73478 53 5 53H60C60.2652 53 60.5196 53.1054 60.7071 53.2929C60.8946 53.4804 61 53.7348 61 54C61 54.2652 60.8946 54.5196 60.7071 54.7071C60.5196 54.8946 60.2652 55 60 55Z" fill="url(#paint8_linear)"/>
<defs>
<linearGradient id="paint0_linear" x1="24.75" y1="36.5601" x2="40.68" y2="36.5601" gradientUnits="userSpaceOnUse">
<stop stop-color="#B5B5B5"/>
<stop offset="0.49" stop-color="#9D9D9D"/>
<stop offset="1" stop-color="#808080"/>
</linearGradient>
<linearGradient id="paint1_linear" x1="54.1399" y1="35.4499" x2="60.3399" y2="35.4499" gradientUnits="userSpaceOnUse">
<stop stop-color="#F6921E"/>
<stop offset="0.49" stop-color="#B26827"/>
<stop offset="1" stop-color="#7E3A1C"/>
</linearGradient>
<linearGradient id="paint2_linear" x1="245.617" y1="278.443" x2="261.14" y2="278.443" gradientUnits="userSpaceOnUse">
<stop stop-color="#F6921E"/>
<stop offset="0.49" stop-color="#B26827"/>
<stop offset="1" stop-color="#7E3A1C"/>
</linearGradient>
<linearGradient id="paint3_linear" x1="222.325" y1="250.726" x2="237.613" y2="250.726" gradientUnits="userSpaceOnUse">
<stop stop-color="#F6921E"/>
<stop offset="0.49" stop-color="#B26827"/>
<stop offset="1" stop-color="#7E3A1C"/>
</linearGradient>
<linearGradient id="paint4_linear" x1="219.045" y1="351.556" x2="238.505" y2="351.556" gradientUnits="userSpaceOnUse">
<stop stop-color="#F6921E"/>
<stop offset="0.49" stop-color="#B26827"/>
<stop offset="1" stop-color="#7E3A1C"/>
</linearGradient>
<linearGradient id="paint5_linear" x1="680.983" y1="767.359" x2="928.731" y2="767.359" gradientUnits="userSpaceOnUse">
<stop stop-color="#B5B5B5"/>
<stop offset="0.49" stop-color="#9D9D9D"/>
<stop offset="1" stop-color="#808080"/>
</linearGradient>
<linearGradient id="paint6_linear" x1="95.1786" y1="1001.52" x2="606.617" y2="1001.52" gradientUnits="userSpaceOnUse">
<stop stop-color="#B5B5B5"/>
<stop offset="0.49" stop-color="#9D9D9D"/>
<stop offset="1" stop-color="#808080"/>
</linearGradient>
<linearGradient id="paint7_linear" x1="2.99993" y1="27.4201" x2="60.9999" y2="27.4201" gradientUnits="userSpaceOnUse">
<stop stop-color="#FE7A18"/>
<stop offset="0.33" stop-color="#FE9215"/>
<stop offset="1" stop-color="#FFCC0F"/>
</linearGradient>
<linearGradient id="paint8_linear" x1="232" y1="161" x2="3481" y2="161" gradientUnits="userSpaceOnUse">
<stop stop-color="#F6921E"/>
<stop offset="0.49" stop-color="#B26827"/>
<stop offset="1" stop-color="#7E3A1C"/>
</linearGradient>
</defs>
</svg>
