<?xml version="1.0" encoding="iso-8859-1"?>
<!-- Generator: Adobe Illustrator 21.0.0, SVG Export Plug-In . SVG Version: 6.00 Build 0)  -->
<svg version="1.1" id="Capa_1" xmlns="http://www.w3.org/2000/svg" xmlns:xlink="http://www.w3.org/1999/xlink" x="0px" y="0px"
	 viewBox="0 0 511.999 511.999" style="enable-background:new 0 0 511.999 511.999;" xml:space="preserve">
<g id="XMLID_441_">
	<path id="XMLID_442_" d="M418.966,0H350.33c-4.142,0-7.5,3.357-7.5,7.5s3.358,7.5,7.5,7.5h68.636c6.92,0,12.55,5.63,12.55,12.55
		v85.119c0,4.143,3.358,7.5,7.5,7.5s7.5-3.357,7.5-7.5V27.55C446.517,12.358,434.158,0,418.966,0z"/>
	<path id="XMLID_443_" d="M439.017,137.829c-4.142,0-7.5,3.357-7.5,7.5v280.846c0,6.921-5.63,12.551-12.55,12.551H219.33
		c-4.142,0-7.5,3.357-7.5,7.5s3.358,7.5,7.5,7.5h176.031v14.869c0,1.419-1.111,2.574-2.476,2.574H108.924
		c-1.365,0-2.476-1.155-2.476-2.574v-15.072c0.827,0.12,1.665,0.203,2.525,0.203h77.695c4.142,0,7.5-3.357,7.5-7.5
		s-3.358-7.5-7.5-7.5h-77.695c-1.392,0-2.525-1.133-2.525-2.525v-16.179c11.749-0.909,21.034-10.753,21.034-22.732
		c0-11.978-9.284-21.822-21.034-22.731v-22.533c11.749-0.909,21.034-10.753,21.034-22.732s-9.284-21.823-21.034-22.732v-22.533
		c11.749-0.909,21.034-10.753,21.034-22.732c0-11.978-9.284-21.822-21.034-22.731v-22.533c11.749-0.909,21.034-10.753,21.034-22.732
		s-9.284-21.823-21.034-22.732v-22.533c11.749-0.909,21.034-10.753,21.034-22.732c0-11.978-9.284-21.822-21.034-22.731V80.039
		c11.749-0.909,21.034-10.753,21.034-22.732s-9.284-21.823-21.034-22.732v-17.05c0-1.392,1.133-2.524,2.525-2.524h208.695
		c4.142,0,7.5-3.357,7.5-7.5s-3.358-7.5-7.5-7.5H108.974c-9.663,0-17.525,7.861-17.525,17.524v16.975H88.29
		c-12.576,0-22.808,10.231-22.808,22.808S75.714,80.114,88.29,80.114h3.159v22.382H88.29c-12.576,0-22.808,10.231-22.808,22.807
		c0,12.576,10.231,22.808,22.808,22.808h3.159v22.382H88.29c-12.576,0-22.808,10.231-22.808,22.808s10.231,22.808,22.808,22.808
		h3.159v22.382H88.29c-12.576,0-22.808,10.231-22.808,22.807c0,12.576,10.231,22.808,22.808,22.808h3.159v22.382H88.29
		c-12.576,0-22.808,10.231-22.808,22.808s10.231,22.808,22.808,22.808h3.159v22.382H88.29c-12.576,0-22.808,10.231-22.808,22.807
		c0,12.576,10.231,22.808,22.808,22.808h3.159v74.328c0,9.69,7.839,17.574,17.476,17.574h310.141
		c15.137,0,27.452-12.403,27.452-27.648V145.329C446.517,141.187,443.159,137.829,439.017,137.829z M80.482,57.307
		c0-4.305,3.502-7.808,7.808-7.808h16.385c4.305,0,7.807,3.503,7.807,7.808s-3.502,7.808-7.807,7.808H88.29
		C83.985,65.114,80.482,61.611,80.482,57.307z M80.482,125.303c0-4.305,3.502-7.807,7.808-7.807h16.385
		c4.305,0,7.807,3.502,7.807,7.807s-3.502,7.808-7.807,7.808H88.29C83.985,133.11,80.482,129.607,80.482,125.303z M80.482,193.3
		c0-4.305,3.502-7.808,7.808-7.808h16.385c4.305,0,7.807,3.503,7.807,7.808s-3.502,7.808-7.807,7.808H88.29
		C83.985,201.107,80.482,197.604,80.482,193.3z M80.482,261.296c0-4.305,3.502-7.807,7.808-7.807h16.385
		c4.305,0,7.807,3.502,7.807,7.807s-3.502,7.808-7.807,7.808H88.29C83.985,269.104,80.482,265.601,80.482,261.296z M80.482,329.293
		c0-4.305,3.502-7.808,7.808-7.808h16.385c4.305,0,7.807,3.503,7.807,7.808s-3.502,7.808-7.807,7.808H88.29
		C83.985,337.101,80.482,333.598,80.482,329.293z M80.482,397.289c0-4.305,3.502-7.807,7.808-7.807h16.385
		c4.305,0,7.807,3.502,7.807,7.807s-3.502,7.808-7.807,7.808H88.29C83.985,405.097,80.482,401.594,80.482,397.289z M419.065,496.999
		H108.924c-1.365,0-2.476-1.154-2.476-2.574v-8.453c0.811,0.116,1.633,0.197,2.476,0.197h283.961
		c9.636,0,17.476-7.884,17.476-17.574v-14.869h8.605c4.519,0,8.783-1.101,12.55-3.037v33.662
		C431.517,491.325,425.931,496.999,419.065,496.999z"/>
	<path id="XMLID_452_" d="M247.706,166.097c3.235-3.235,5.017-7.538,5.017-12.115c0-4.576-1.782-8.879-5.017-12.114L211.6,105.762
		c-6.681-6.68-17.55-6.68-24.229,0l-35.582,35.581c-8.152,8.152-10.19,20.524-5.07,30.79c16.32,32.678,43.805,69.172,77.391,102.759
		c33.585,33.584,70.078,61.068,102.761,77.393c3.771,1.88,7.826,2.795,11.852,2.795c6.932,0,13.777-2.711,18.935-7.867
		l35.581-35.581c6.68-6.681,6.68-17.55,0-24.23l-36.106-36.105c-6.68-6.68-17.549-6.68-24.229,0L311.6,272.601
		c-0.765,0.764-1.968,0.85-2.797,0.202c-14.877-11.647-29.592-24.725-43.736-38.869c-14.145-14.145-27.222-28.859-38.869-43.736
		c-0.649-0.829-0.562-2.031,0.202-2.795L247.706,166.097z M200.993,116.369l36.106,36.105c0.831,0.831,0.831,2.184,0,3.015
		l-4.457,4.457l-39.121-39.121l4.456-4.456C198.809,115.537,200.162,115.537,200.993,116.369z M345.019,261.279
		c0.403,0,0.993,0.107,1.508,0.623l36.106,36.105c0.832,0.831,0.832,2.185,0,3.016l-4.457,4.457l-39.122-39.121l4.457-4.457
		C344.026,261.387,344.616,261.279,345.019,261.279z M254.461,244.541c14.571,14.57,29.743,28.053,45.096,40.073
		c6.793,5.315,16.53,4.711,22.649-1.406l6.242-6.242l39.121,39.121l-20.517,20.517c-3.584,3.584-9.003,4.492-13.482,2.258
		c-31.273-15.619-66.379-42.104-98.853-74.578c-32.475-32.475-58.96-67.582-74.576-98.849c-2.235-4.482-1.329-9.901,2.255-13.485
		l20.518-20.518l39.121,39.121l-6.241,6.241c-6.12,6.121-6.725,15.858-1.406,22.649
		C226.407,214.796,239.889,229.969,254.461,244.541z"/>
	<path id="XMLID_457_" d="M305.877,203.679l7.972-7.853c2.951-2.906,2.987-7.655,0.08-10.606c-2.907-2.95-7.656-2.987-10.606-0.079
		l-7.972,7.853c-2.951,2.906-2.987,7.655-0.08,10.606c1.468,1.489,3.405,2.236,5.344,2.236
		C302.515,205.836,304.416,205.118,305.877,203.679z"/>
	<path id="XMLID_458_" d="M278.382,190.169c3.29,0,6.308-2.182,7.225-5.507l2.978-10.787c1.102-3.992-1.241-8.123-5.234-9.225
		c-3.993-1.103-8.124,1.241-9.225,5.234l-2.978,10.787c-1.102,3.992,1.241,8.123,5.234,9.225
		C277.05,190.081,277.721,190.169,278.382,190.169z"/>
	<path id="XMLID_459_" d="M314.06,213.547c-4.009,1.042-6.415,5.136-5.373,9.146c0.877,3.376,3.92,5.615,7.253,5.615
		c0.625,0,1.259-0.079,1.892-0.243l10.83-2.814c4.009-1.042,6.415-5.136,5.373-9.146c-1.042-4.009-5.14-6.412-9.145-5.372
		L314.06,213.547z"/>
</g>
<g>
</g>
<g>
</g>
<g>
</g>
<g>
</g>
<g>
</g>
<g>
</g>
<g>
</g>
<g>
</g>
<g>
</g>
<g>
</g>
<g>
</g>
<g>
</g>
<g>
</g>
<g>
</g>
<g>
</g>
</svg>
